<svg width="24" height="24" viewBox="0 0 24 24" fill="none" xmlns="http://www.w3.org/2000/svg">
<path d="M12.5 11.0002C13.8807 11.0002 15 9.8809 15 8.50018C15 7.11947 13.8807 6.00018 12.5 6.00018C11.1193 6.00018 10 7.11947 10 8.50018C10 9.8809 11.1193 11.0002 12.5 11.0002Z" stroke="#012311" stroke-width="2" stroke-linecap="round" stroke-linejoin="round"/>
<path d="M12.5 2.00018C11.1072 1.99935 9.75096 2.44592 8.63113 3.27409C7.51131 4.10225 6.68711 5.26822 6.27999 6.60018C5.17999 9.73018 5.49999 10.5002 3.09999 12.6802C2.62175 13.0723 2.27636 13.6025 2.1111 14.1985C1.94583 14.7944 1.96876 15.4268 2.17676 16.0092C2.38475 16.5916 2.76764 17.0955 3.27302 17.4519C3.7784 17.8083 4.38158 17.9998 4.99999 18.0002C8.99999 18.0002 13.4 16.2002 16.4 13.7002C17.4914 12.8816 18.2976 11.7405 18.7043 10.4383C19.1111 9.13609 19.0978 7.73893 18.6664 6.4447C18.235 5.15048 17.4073 4.02479 16.3006 3.22711C15.1939 2.42943 13.8642 2.00018 12.5 2.00018Z" stroke="#012311" stroke-width="2" stroke-linecap="round" stroke-linejoin="round"/>
<path d="M18.5 6.00018L20.69 10.5002C20.8971 11.1466 21.0017 11.8214 21 12.5002C21.0008 13.5094 20.7662 14.5049 20.3148 15.4076C19.8635 16.3103 19.2078 17.0953 18.4 17.7002C15.4 20.2002 11 22.0002 6.99999 22.0002C6.44324 21.9994 5.89769 21.8437 5.42438 21.5506C4.95107 21.2574 4.56868 20.8383 4.31999 20.3402L2.39999 16.5002" stroke="#012311" stroke-width="2" stroke-linecap="round" stroke-linejoin="round"/>
</svg>
